<svg width="20" height="20" viewBox="0 0 20 20" xmlns="http://www.w3.org/2000/svg">
    <path id="Path" fill="#e3e3e3" stroke="none" d="M 17 11.979167 L 17 15.5 C 17 15.9125 16.853125 16.265625 16.559376 16.559376 C 16.265625 16.853125 15.9125 17 15.5 17 L 4.5 17 C 4.0875 17 3.734376 16.853125 3.440626 16.559376 C 3.146875 16.265625 3 15.9125 3 15.5 L 3 11.979167 L 4.5 11.979167 L 4.5 15.5 L 15.5 15.5 L 15.5 11.979167 L 17 11.979167 Z M 19 10.75 L 1 10.75 L 1 9.25 L 19 9.25 L 19 10.75 Z M 17 7.625 L 15.5 7.625 L 15.5 6.125 L 17 6.125 L 17 7.625 Z M 4.5 7.625 L 3 7.625 L 3 6.125 L 4.5 6.125 L 4.5 7.625 Z M 17 4.5 L 15.5 4.5 L 15.5 3 C 15.916667 3 16.270833 3.146875 16.5625 3.440626 C 16.854167 3.734376 17 4.0875 17 4.5 Z M 13.875 4.5 L 12.375 4.5 L 12.375 3 L 13.875 3 L 13.875 4.5 Z M 10.75 4.5 L 9.25 4.5 L 9.25 3 L 10.75 3 L 10.75 4.5 Z M 7.625 4.5 L 6.125 4.5 L 6.125 3 L 7.625 3 L 7.625 4.5 Z M 4.5 4.5 L 3 4.5 C 3 4.0875 3.146875 3.734376 3.440626 3.440626 C 3.734376 3.146875 4.0875 3 4.5 3 L 4.5 4.5 Z"/>
</svg>
