<svg width="20" height="20" viewBox="0 0 20 20" xmlns="http://www.w3.org/2000/svg">
    <path id="Path" fill="#e3e3e3" stroke="none" d="M 16.5 8 L 16.5 5.5 L 14 5.5 L 14 4 L 16.5 4 C 16.916667 4 17.270833 4.146875 17.5625 4.440625 C 17.854167 4.734375 18 5.0875 18 5.5 L 18 8 Z M 2 8 L 2 5.5 C 2 5.083333 2.146875 4.729167 2.440625 4.4375 C 2.734375 4.145833 3.0875 4 3.5 4 L 6 4 L 6 5.5 L 3.5 5.5 L 3.5 8 Z M 14 16 L 14 14.5 L 16.5 14.5 L 16.5 12 L 18 12 L 18 14.5 C 18 14.916667 17.853125 15.270833 17.559374 15.5625 C 17.265624 15.854167 16.9125 16 16.5 16 Z M 3.5 16 C 3.083333 16 2.729167 15.853125 2.4375 15.559376 C 2.145833 15.265625 2 14.9125 2 14.5 L 2 12 L 3.5 12 L 3.5 14.5 L 6 14.5 L 6 16 Z M 5 7"/>
    <path id="Path-copy" fill="#e3e3e3" stroke="none" d="M 8 14 L 8 12 L 6 12 L 6 11 L 8 11 L 8 9 L 6 9 L 6 8 L 8 8 L 8 6 L 9 6 L 9 8 L 11 8 L 11 6 L 12 6 L 12 8 L 14 8 L 14 9 L 12 9 L 12 11 L 14 11 L 14 12 L 12 12 L 12 14 L 11 14 L 11 12 L 9 12 L 9 14 L 8 14 Z M 9 11 L 11 11 L 11 9 L 9 9 L 9 11 Z"/>
</svg>
